#!OML:ASF H:\Dans Jumps\Project 1\Capture day 1\Session 1\subject.ASF
:FULLY-SPECIFIED
:DEGREES
489
root 0.646712 17.6988 11.9099 9.01921 -1.93581 -1.43851
lowerback -4.20882 -0.363407 -0.393448
upperback 0.59868 -0.511668 1.60487
thorax 2.99446 -0.275389 1.83813
lowerneck -13.1243 -0.0174445 -1.86691
upperneck 18.9079 -0.019911 1.91183
head 8.01356 0.0440536 0.942279
rclavicle 4.37326e-015 1.70955e-014
rhumerus -28.6072 -12.4114 -79.574
rradius 24.8779
rwrist 42.9695
rhand -16.1922 -26.3892
rfingers 7.12502
rthumb 10.0147 -56.131
lclavicle 4.37326e-015 1.70955e-014
lhumerus -23.6564 -3.35102 89.3987
lradius 25.9447
lwrist 9.84747
lhand -24.7598 -9.46818
lfingers 7.12502
lthumb 1.74357 20.5044
rfemur -13.9054 -4.66237 21.3849
rtibia 21.2186
rfoot -14.8942 -0.324649
rtoes 14.5431
lfemur -13.1746 9.64766 -19.3078
ltibia 17.5576
lfoot -10.9989 5.4409
ltoes -3.96302
490
root 0.648825 17.6984 11.9071 9.00312 -1.96264 -1.459
lowerback -4.21525 -0.363514 -0.372286
upperback 0.618804 -0.513327 1.60912
thorax 3.01874 -0.276128 1.83047
lowerneck -13.1626 0.000343717 -1.83341
upperneck 18.8726 0.00954054 1.8579
head 8.00816 0.055288 0.921827
rclavicle -6.03808e-015 1.86858e-014
rhumerus -28.4747 -12.405 -79.6392
rradius 24.889
rwrist 42.86
rhand -16.1625 -26.4152
rfingers 7.12502
rthumb 10.0434 -56.1555
lclavicle -6.03808e-015 1.86858e-014
lhumerus -23.6345 -3.27171 89.5466
lradius 25.7707
lwrist 9.78566
lhand -24.8178 -9.39843
lfingers 7.12502
lthumb 1.68751 20.5746
rfemur -13.8914 -4.61939 21.395
rtibia 21.2014
rfoot -14.8814 -0.338455
rtoes 14.5187
lfemur -13.1737 9.62591 -19.2928
ltibia 17.5829
lfoot -10.992 5.50655
ltoes -3.9913
491
root 0.650973 17.6979 11.9042 8.98801 -1.99336 -1.47536
lowerback -4.22206 -0.361818 -0.354708
upperback 0.639761 -0.512391 1.61262
thorax 3.04403 -0.275631 1.82422
lowerneck -13.1974 0.0179416 -1.79772
upperneck 18.8245 0.0390658 1.8002
head 7.99791 0.0663452 0.899688
rclavicle 1.2921e-015 1.78906e-015
rhumerus -28.3411 -12.3879 -79.7067
rradius 24.898
rwrist 42.7296
rhand -16.1529 -26.4477
rfingers 7.12502
rthumb 10.0526 -56.1876
lclavicle 1.2921e-015 1.78906e-015
lhumerus -23.6245 -3.20039 89.6961
lradius 25.6052
lwrist 9.75009
lhand -24.8805 -9.32505
lfingers 7.12502
lthumb 1.62697 20.6485
rfemur -13.8807 -4.56975 21.3996
rtibia 21.1847
rfoot -14.8679 -0.352711
rtoes 14.513
lfemur -13.1716 9.60129 -19.2829
ltibia 17.6052
lfoot -10.9826 5.5793
ltoes -4.02943
492
root 0.653207 17.6975 11.9011 8.97345 -2.02557 -1.48623
lowerback -4.22576 -0.359199 -0.34116
upperback 0.657577 -0.509922 1.61485
thorax 3.06429 -0.274382 1.81906
lowerneck -13.2164 0.0351189 -1.76527
upperneck 18.7616 0.0679786 1.74521
head 7.97994 0.0771149 0.878803
rclavicle 2.18663e-015 1.19271e-015
rhumerus -28.2175 -12.3593 -79.7744
rradius 24.908
rwrist 42.5841
rhand -16.1594 -26.4815
rfingers 7.12502
rthumb 10.0464 -56.2217
lclavicle 2.18663e-015 1.19271e-015
lhumerus -23.6303 -3.1531 89.8489
lradius 25.446
lwrist 9.74256
lhand -24.9418 -9.2192
lfingers 7.12502
lthumb 1.56779 20.7548
rfemur -13.8725 -4.51943 21.3973
rtibia 21.1693
rfoot -14.8564 -0.363471
rtoes 14.5276
lfemur -13.1678 9.57724 -19.2799
ltibia 17.6223
lfoot -10.9709 5.65275
ltoes -4.06403
493
root 0.655485 17.697 11.8979 8.95977 -2.06211 -1.48842
lowerback -4.22774 -0.353934 -0.33391
upperback 0.673233 -0.503445 1.61339
thorax 3.08126 -0.271182 1.81391
lowerneck -13.1981 0.0451922 -1.74433
upperneck 18.6652 0.0877954 1.69733
head 7.94434 0.0833859 0.860924
rclavicle -7.77745e-015 -1.53064e-014
rhumerus -28.1037 -12.3268 -79.842
rradius 24.9191
rwrist 42.4244
rhand -16.1822 -26.4989
rfingers 7.12502
rthumb 10.0244 -56.2402
lclavicle -7.77745e-015 -1.53064e-014
lhumerus -23.6479 -3.12682 90.0021
lradius 25.2883
lwrist 9.73715
lhand -25.0012 -9.1032
lfingers 7.12502
lthumb 1.51044 20.8712
rfemur -13.868 -4.46687 21.3846
rtibia 21.1562
rfoot -14.8472 -0.372382
rtoes 14.5447
lfemur -13.1621 9.55291 -19.287
ltibia 17.6336
lfoot -10.9562 5.72789
ltoes -4.09294
494
root 0.657784 17.6966 11.8947 8.9454 -2.10326 -1.48378
lowerback -4.22752 -0.347152 -0.332391
upperback 0.687427 -0.494535 1.60954
thorax 3.09541 -0.266826 1.80968
lowerneck -13.1445 0.0499704 -1.74714
upperneck 18.5413 0.100689 1.67087
head 7.89338 0.086748 0.853105
rclavicle -1.2424e-016 -1.03368e-014
rhumerus -27.9993 -12.2885 -79.9099
rradius 24.9311
rwrist 42.2538
rhand -16.2089 -26.5
rfingers 7.12502
rthumb 9.99858 -56.2425
lclavicle -1.2424e-016 -1.03368e-014
lhumerus -23.6738 -3.12068 90.155
lradius 25.1219
lwrist 9.71588
lhand -25.0638 -8.97918
lfingers 7.12502
lthumb 1.44992 20.9956
rfemur -13.8651 -4.41121 21.3635
rtibia 21.1458
rfoot -14.8407 -0.379186
rtoes 14.5677
lfemur -13.1534 9.52872 -19.3019
ltibia 17.6401
lfoot -10.938 5.8047
ltoes -4.11805
495
root 0.660029 17.6962 11.8913 8.93147 -2.14816 -1.47705
lowerback -4.2223 -0.339165 -0.332794
upperback 0.699127 -0.483825 1.60463
thorax 3.10413 -0.261556 1.80561
lowerneck -13.0723 0.0613031 -1.77387
upperneck 18.4057 0.121536 1.67369
head 7.83508 0.0950641 0.859658
rclavicle 1.13307e-014 1.43125e-014
rhumerus -27.8976 -12.2581 -79.976
rradius 24.9352
rwrist 42.0859
rhand -16.2294 -26.4822
rfingers 7.12502
rthumb 9.97888 -56.2257
lclavicle 1.13307e-014 1.43125e-014
lhumerus -23.71 -3.1216 90.3035
lradius 24.9509
lwrist 9.65558
lhand -25.1326 -8.86387
lfingers 7.12502
lthumb 1.38354 21.1114
rfemur -13.8645 -4.35274 21.3403
rtibia 21.1383
rfoot -14.8374 -0.3879
rtoes 14.5845
lfemur -13.1439 9.50804 -19.3194
ltibia 17.6429
lfoot -10.9179 5.87995
ltoes -4.1313
496
root 0.662155 17.6959 11.8877 8.91776 -2.19533 -1.46865
lowerback -4.21293 -0.329797 -0.334481
upperback 0.708904 -0.47113 1.59887
thorax 3.10846 -0.255281 1.80151
lowerneck -13.0059 0.0711074 -1.79605
upperneck 18.2721 0.140219 1.67198
head 7.77861 0.102281 0.863741
rclavicle -1.71452e-015 3.97569e-016
rhumerus -27.8019 -12.2356 -80.0393
rradius 24.9342
rwrist 41.9223
rhand -16.232 -26.4473
rfingers 7.12502
rthumb 9.97636 -56.1909
lclavicle -1.71452e-015 3.97569e-016
lhumerus -23.7571 -3.1351 90.4495
lradius 24.7747
lwrist 9.55537
lhand -25.2078 -8.78125
lfingers 7.12502
lthumb 1.31091 21.1945
rfemur -13.8661 -4.29043 21.3165
rtibia 21.1336
rfoot -14.8369 -0.404568
rtoes 14.5749
lfemur -13.1349 9.48724 -19.3382
ltibia 17.644
lfoot -10.8952 5.95496
ltoes -4.14006
497
root 0.664132 17.6956 11.8842 8.90409 -2.24426 -1.46036
lowerback -4.20223 -0.31956 -0.336704
upperback 0.719064 -0.457238 1.59288
thorax 3.11241 -0.248416 1.79758
lowerneck -12.9487 0.0802759 -1.81804
upperneck 18.1419 0.157698 1.672
head 7.72501 0.109163 0.868267
rclavicle -2.36057e-015 -1.51076e-014
rhumerus -27.7077 -12.2227 -80.1014
rradius 24.9288
rwrist 41.7621
rhand -16.2094 -26.4114
rfingers 7.12502
rthumb 9.99813 -56.1539
lclavicle -2.36057e-015 -1.51076e-014
lhumerus -23.8063 -3.1811 90.596
lradius 24.5845
lwrist 9.4419
lhand -25.2857 -8.71124
lfingers 7.12502
lthumb 1.23561 21.2649
rfemur -13.8682 -4.22513 21.294
rtibia 21.131
rfoot -14.8385 -0.42869
rtoes 14.547
lfemur -13.1257 9.46705 -19.3561
ltibia 17.6448
lfoot -10.8728 6.0295
ltoes -4.1324
498
root 0.665968 17.6953 11.8806 8.89033 -2.29299 -1.45486
lowerback -4.19019 -0.308423 -0.335769
upperback 0.728624 -0.442303 1.58707
thorax 3.11492 -0.240967 1.79212
lowerneck -12.9025 0.0858404 -1.8267
upperneck 18.0159 0.170414 1.65732
head 7.67501 0.11334 0.865298
rclavicle -1.76421e-015 -2.64384e-014
rhumerus -27.6173 -12.2251 -80.1594
rradius 24.9167
rwrist 41.6113
rhand -16.1706 -26.3714
rfingers 7.12502
rthumb 10.0356 -56.1122
lclavicle -1.76421e-015 -2.64384e-014
lhumerus -23.8639 -3.23423 90.7383
lradius 24.3916
lwrist 9.30084
lhand -25.3528 -8.63442
lfingers 7.12502
lthumb 1.17079 21.3421
rfemur -13.8706 -4.15829 21.2763
rtibia 21.131
rfoot -14.8415 -0.460552
rtoes 14.4995
lfemur -13.1168 9.44918 -19.37
ltibia 17.6449
lfoot -10.85 6.10079
ltoes -4.12334
499
root 0.667716 17.6949 11.8771 8.87601 -2.33945 -1.44947
lowerback -4.17977 -0.296862 -0.333963
upperback 0.737469 -0.426865 1.5818
thorax 3.11759 -0.233252 1.78675
lowerneck -12.8663 0.0814909 -1.81926
upperneck 17.8933 0.17056 1.62059
head 7.62826 0.110573 0.851176
rclavicle 8.69683e-016 -2.66371e-014
rhumerus -27.5312 -12.239 -80.2112
rradius 24.8981
rwrist 41.4631
rhand -16.1272 -26.3214
rfingers 7.12502
rthumb 10.0774 -56.0601
lclavicle 8.69683e-016 -2.66371e-014
lhumerus -23.9343 -3.27536 90.8753
lradius 24.2046
lwrist 9.12737
lhand -25.3956 -8.52891
lfingers 7.12502
lthumb 1.12944 21.4478
rfemur -13.8724 -4.09617 21.2597
rtibia 21.1328
rfoot -14.8457 -0.493912
rtoes 14.4482
lfemur -13.1068 9.4354 -19.3831
ltibia 17.6442
lfoot -10.8303 6.16426
ltoes -4.11575
500
root 0.669432 17.6946 11.8739 8.86153 -2.38204 -1.44377
lowerback -4.1733 -0.286822 -0.331765
upperback 0.747232 -0.41352 1.57691
thorax 3.12351 -0.226598 1.78141
lowerneck -12.8476 0.0760609 -1.79877
upperneck 17.7819 0.169689 1.56826
head 7.58846 0.106777 0.829815
rclavicle -3.15571e-015 -3.18055e-015
rhumerus -27.4512 -12.2604 -80.2598
rradius 24.8803
rwrist 41.316
rhand -16.0843 -26.2678
rfingers 7.12502
rthumb 10.1188 -56.0045
lclavicle -3.15571e-015 -3.18055e-015
lhumerus -24.0116 -3.30687 91.0045
lradius 24.0266
lwrist 8.94272
lhand -25.3907 -8.3366
lfingers 7.12502
lthumb 1.13424 21.6401
rfemur -13.8736 -4.04407 21.2432
rtibia 21.1364
rfoot -14.8508 -0.52114
rtoes 14.403
lfemur -13.0959 9.42912 -19.3966
ltibia 17.6427
lfoot -10.8126 6.21611
ltoes -4.11451
501
root 0.671087 17.6942 11.8708 8.84687 -2.42196 -1.43897
lowerback -4.17068 -0.27741 -0.32885
upperback 0.759336 -0.401135 1.57318
thorax 3.13405 -0.220454 1.77678
lowerneck -12.8299 0.0675076 -1.78316
upperneck 17.6698 0.165145 1.51775
head 7.54871 0.101102 0.809527
rclavicle -7.62836e-015 -1.15295e-014
rhumerus -27.372 -12.2886 -80.3056
rradius 24.8606
rwrist 41.1701
rhand -16.0512 -26.215
rfingers 7.12502
rthumb 10.1508 -55.9501
lclavicle -7.62836e-015 -1.15295e-014
lhumerus -24.0892 -3.33607 91.1276
lradius 23.851
lwrist 8.76014
lhand -25.3448 -8.08646
lfingers 7.12502
lthumb 1.17859 21.89
rfemur -13.8743 -3.99608 21.2281
rtibia 21.1409
rfoot -14.8557 -0.546081
rtoes 14.3661
lfemur -13.0842 9.42668 -19.4083
ltibia 17.6404
lfoot -10.7977 6.26026
ltoes -4.11511
502
root 0.672788 17.6939 11.8681 8.83131 -2.45855 -1.4313
lowerback -4.17218 -0.269875 -0.328576
upperback 0.773437 -0.391173 1.5699
thorax 3.14908 -0.215603 1.77393
lowerneck -12.8102 0.0541988 -1.77289
upperneck 17.5559 0.155189 1.46672
head 7.50815 0.0924593 0.789434
rclavicle 4.02539e-015 6.36111e-015
rhumerus -27.298 -12.3175 -80.3492
rradius 24.8426
rwrist 41.0234
rhand -16.029 -26.1665
rfingers 7.12502
rthumb 10.1722 -55.9005
lclavicle 4.02539e-015 6.36111e-015
lhumerus -24.1681 -3.36005 91.2438
lradius 23.6712
lwrist 8.57496
lhand -25.2638 -7.82156
lfingers 7.12502
lthumb 1.25676 22.1545
rfemur -13.8727 -3.959 21.2096
rtibia 21.1458
rfoot -14.8608 -0.56375
rtoes 14.3146
lfemur -13.0708 9.42873 -19.4235
ltibia 17.6381
lfoot -10.7865 6.29751
ltoes -4.12709
